<?xml version="1.0" encoding="utf-8"?>
<!-- Generator: Adobe Illustrator 24.1.0, SVG Export Plug-In . SVG Version: 6.00 Build 0)  -->
<svg version="1.1" id="svg13641" xmlns:svg="http://www.w3.org/2000/svg"
	 xmlns="http://www.w3.org/2000/svg" xmlns:xlink="http://www.w3.org/1999/xlink" x="0px" y="0px" viewBox="0 0 1024 165"
	 style="enable-background:new 0 0 1024 165;" xml:space="preserve">
<style type="text/css">
	.st0{clip-path:url(#SVGID_2_);}
	.st1{fill:#8D7D7D;}
	.st2{fill:#224A3D;}
	.st3{clip-path:url(#SVGID_4_);}
	.st4{clip-path:url(#SVGID_6_);}
	.st5{clip-path:url(#SVGID_8_);}
	.st6{fill:none;stroke:#8D7C71;stroke-width:6.5121;stroke-miterlimit:19.5411;}
</style>
<g id="layer1" transform="translate(608.0647,-85.53852)">
	<g id="g16349" transform="matrix(1.25,0,0,-1.25,-1213.9422,416.17227)">
		<g>
			<defs>
				<rect id="SVGID_1_" x="382.6" y="116" width="1023.3" height="165"/>
			</defs>
			<clipPath id="SVGID_2_">
				<use xlink:href="#SVGID_1_"  style="overflow:visible;"/>
			</clipPath>
			<g id="g16351" class="st0">
				<path id="path16357" class="st1" d="M797.7,225.1c0,3.5,0,36.1,0,36.1c0,2.5-2.3,3.3-0.9,3.3c1.3,0,7.8,0,7.8,0
					c1.7,0-0.7-0.5-0.7-3.2c0-1.9,0-36.1,0-36.1c0-3.9,0-4.3,6.7-4.7c2.8-0.2,10.6-0.6,17.3,7.6c2,2.5,1.4,0.7,1.4,0.7
					s-1.1-7.4-1.5-8.8c-0.3-1.1-0.6-0.9-1.6-0.9c-1,0-29.4,0-29.4,0c-1.6,0-0.7,0.4,0.4,2.1C797.8,222.1,797.7,225.1,797.7,225.1"/>
				<path id="path16359" class="st1" d="M837.8,258.6c0.5-1.1,15.7-39.1,15.7-39.1c0.2-0.4,0.4-0.4,0.4-0.4s3.1,0,3.5,0
					s0.6,0.3,0.7,0.4c0,0,12.7,33.6,13.5,35.6c0.8,2,3.5,6.7,5.1,8.3c1.3,1.2-0.7,1-0.7,1s-7.6,0-8.7,0c-0.6,0-1.5,0.4,0-1.8
					c2.7-4,0.9-8.4,0.9-8.4l-10.4-28.9c0,0-12.5,32.7-13,33.8c-0.4,1.1-0.4,3,0.3,3.8c1.4,1.7,0.9,1.4-0.2,1.4c-0.8,0-8.9,0-10.2,0
					C832.4,264.5,835.9,263.7,837.8,258.6"/>
				<path id="path16361" class="st1" d="M896.6,257.8c0.1-4.8-3-28.9-4.1-32.2c-0.9-3-2.2-5.2-2.6-5.7c-0.5-0.6-0.6-0.8,0.2-0.8
					c0.3,0,6,0,6.5,0c1.3,0-0.1,1.3-0.1,1.3s-1.1,1.7-0.7,5.2c0.1,1.3,3.7,32.3,3.7,32.3s14-37.3,14.5-38.4c0.5-1.3,1.1-1.4,1.7,0
					c0.2,0.5,15,39.3,15,39.3s3.3-30.4,3.6-32.9c0.2-2.5,0.4-4.3,0.2-4.9c-0.4-1.4-1.6-1.7-0.4-1.7c1.6,0,8.1,0,8.6,0
					c1.2,0,1,0.2,0.5,1c-0.4,0.6-1.5,1.7-2.7,6.5c-1,4-3,31.7-3.2,33.5c-0.3,4.2,2.5,4.4,1.1,4.4c-0.4,0-8.1,0-8.1,0s-1-0.1-1.4-1.5
					c-0.2-0.7-12.1-34.3-12.1-34.3l-13,35.8c0,0-6.3,0-8.2,0C892.7,264.5,896.8,264,896.6,257.8"/>
				<path id="path16363" class="st1" d="M1001.4,263.9c0.5,0.5,0.5,0.6-0.7,0.6c-0.5,0-6.9,0-7.4,0c-1.7,0-0.8-0.6-0.8-0.6
					s1.1-1.3,1.2-3.3v-17.1h-21.2c0,0,0,14.9,0,15.8c0,2.9,0.9,3.8,1.2,4.3c0.7,1,0.4,0.9-0.7,0.9c-0.3,0-5.1,0-7,0
					c-1.3,0-1.6-0.1-0.7-0.8c0,0,0.9-0.6,0.8-4.6c0,0,0-33.2,0-34.8c-0.1-2.7-0.2-3.9-0.8-4.7c-0.6-0.7,0.3-0.6,0.3-0.6s6.9,0,7.5,0
					s0.3,0.4,0.3,0.4s-0.8,0.2-0.9,4.8v17.3h21.2c0,0,0.1-16.4,0.1-17.3c0-2.8,0-3.9-0.7-4.5c-0.4-0.4-1.4-0.7,0.5-0.7
					c1,0,6.7,0,7.4,0c1,0,1.3,0,0.5,0.6c-0.4,0.4-1.1,1-1.1,4.6c0,1.1,0,35.1,0,35.9C1000.5,263.1,1001.4,263.9,1001.4,263.9"/>
			</g>
		</g>
	</g>
	<path id="path16365" class="st2" d="M-411.2,248.1c0.3,0,0.6-0.3,0.6-0.6"/>
	<path class="st2" d="M-435.5,197.2l-37.6,0c-0.3,0-0.5,0.3-0.5,0.6v3c0,0.4,0.3,0.6,0.6,0.6h15.3c0.3,0,0.6,0.4,0.6,0.7l0,45.3
		l0,0.1c0,0.3,0.3,0.6,0.5,0.6h3.6c0.3,0,0.6-0.3,0.6-0.6l0-45.3v0c0-0.3,0.4-0.7,0.5-0.7l16.4,0c0.3,0,0.6-0.3,0.6-0.6v-3
		C-434.9,197.5-435.1,197.2-435.5,197.2z"/>
	<path class="st2" d="M-476,243.9l-20.6,0c-0.3,0-0.6-0.3-0.6-0.6l0-18.8l21.2,0c0.3,0,0.6-0.3,0.6-0.6l0-2.9c0-0.3-0.3-0.6-0.6-0.6
		l-21.2,0l0-18.2c0-0.3,0.3-0.6,0.6-0.6l20.5,0c0.3,0,0.6-0.3,0.6-0.6l0-3c0-0.3-0.3-0.6-0.6-0.6h-25.4c-0.3,0-0.6,0.3-0.6,0.6
		l0,49.7c0,0.3,0.3,0.6,0.6,0.6l25.3,0c0.3,0,0.6-0.3,0.6-0.6l0-3.1C-475.4,244.1-475.7,243.9-476,243.9z"/>
	<path class="st2" d="M-342.8,243.9l-20.6,0c-0.3,0-0.6-0.3-0.6-0.6l0-18.8l21.2,0c0.3,0,0.6-0.3,0.6-0.6l0-2.9
		c0-0.3-0.3-0.6-0.6-0.6l-21.2,0l0-18.2c0-0.3,0.3-0.6,0.7-0.6l20.5,0c0.3,0,0.6-0.3,0.6-0.6l0-3c0-0.3-0.3-0.6-0.6-0.6h-25.4
		c-0.3,0-0.6,0.3-0.6,0.6l0,49.7c0,0.3,0.3,0.6,0.6,0.6l25.3,0c0.3,0,0.6-0.3,0.6-0.6l0-3.1C-342.2,244.1-342.5,243.9-342.8,243.9z"
		/>
	<path class="st2" d="M-206.5,243.9l-20.6,0c-0.3,0-0.6-0.3-0.6-0.6l0-18.8l21.2,0c0.3,0,0.6-0.3,0.6-0.6l0-2.9
		c0-0.3-0.3-0.6-0.6-0.6l-21.2,0l0-18.2c0-0.3,0.3-0.6,0.6-0.6l20.5,0c0.3,0,0.6-0.3,0.6-0.6l0-3c0-0.3-0.3-0.6-0.6-0.6h-25.4
		c-0.3,0-0.6,0.3-0.6,0.6l0,49.7c0,0.3,0.3,0.6,0.6,0.6l25.3,0c0.3,0,0.6-0.3,0.6-0.6l0-3.1C-205.9,244.1-206.2,243.9-206.5,243.9z"
		/>
	<path id="path16391" class="st2" d="M-493.6,194.9c1.7,0,3.1-1.4,3.1-3.1c0-1.7-1.4-3.1-3.1-3.1c-1.7,0-3.1,1.4-3.1,3.1
		C-496.7,193.5-495.3,194.9-493.6,194.9"/>
	<path id="path16393" class="st2" d="M-483.6,194.9c1.7,0,3.1-1.4,3.1-3.1c0-1.7-1.4-3.1-3.1-3.1c-1.7,0-3.1,1.4-3.1,3.1
		C-486.7,193.5-485.3,194.9-483.6,194.9"/>
	<path class="st2" d="M-376.1,197.8c0-0.3-0.3-0.6-0.6-0.6l-3.6,0c-0.3,0-0.6,0.3-0.6,0.7l0,22.4h-29.7v-22.5c0-0.3-0.3-0.6-0.6-0.6
		l-3.6,0c-0.3,0-0.6,0.3-0.6,0.7l0,49.7c0,0.3,0.3,0.6,0.6,0.6l3.6,0c0.3,0,0.6-0.3,0.6-0.6v-23h29.7l0,23.1c0,0.3,0.3,0.6,0.6,0.6
		l3.6,0c0.3,0,0.6-0.3,0.6-0.6L-376.1,197.8z"/>
	<path id="path16401" class="st2" d="M-330.6,205.2l0,42.3c0,0.3-0.3,0.6-0.6,0.6l-3.6,0c-0.3,0-0.6-0.3-0.6-0.6v-49.6
		c0-0.3,0.3-0.6,0.6-0.7l4.2,0l33.9,43.7l0-43c0-0.3,0.2-0.6,0.6-0.6h3.7c0.3,0,0.4,0.3,0.4,0.7l0,49.5c0,0.3-0.3,0.7-0.7,0.7
		l-3.5,0c-0.2,0-1-0.1-1-0.4L-330.6,205.2"/>
	<path id="path16403" class="st2" d="M-280.3,205.2l0,42.3c0,0.3-0.3,0.6-0.6,0.6l-3.6,0c-0.3,0-0.6-0.3-0.6-0.6v-49.6
		c0-0.3,0.3-0.6,0.6-0.7l4.2,0l33.9,43.7l0-43c0-0.3,0.2-0.6,0.6-0.6h3.7c0.3,0,0.4,0.3,0.4,0.7l0,49.5c0,0.3-0.3,0.7-0.7,0.7
		l-3.5,0c-0.2,0-1-0.1-1-0.4L-280.3,205.2"/>
	<g id="g16405" transform="matrix(1.25,0,0,-1.25,-1213.9422,416.17227)">
		<g>
			<defs>
				<rect id="SVGID_3_" x="382.6" y="116" width="1023.3" height="165"/>
			</defs>
			<clipPath id="SVGID_4_">
				<use xlink:href="#SVGID_3_"  style="overflow:visible;"/>
			</clipPath>
			<g id="g16407" class="st3">
				<path id="path16413" class="st2" d="M819.2,133.2c-3.3,0-7,1.1-10.4,3.9l2.4,2.9c5.5-4.6,10.9-3.5,13.7-0.7
					c1.4,1.4,2.2,3.1,2.1,5c-0.1,1.9-1.2,3.9-3.9,6l-9.4,6.6h-0.1c-2.9,2.3-4.3,5.2-4.3,8.1s1.4,5.4,3.4,7.3
					c4.1,3.8,11.5,4.7,17.5-0.9l-2.7-2.8c-4.8,4.4-9.5,3.4-12.2,0.9c-1.4-1.3-2.2-2.9-2.2-4.5s0.8-3.3,2.9-5l9.4-6.6
					c3.3-2.6,5.1-5.7,5.4-8.8c0.2-3.1-1-6-3.2-8.1C825.5,134.4,822.5,133.2,819.2,133.2z M842.5,133.2c-3.3,0-7,1.1-10.4,3.9
					l2.4,2.9c5.5-4.6,10.9-3.5,13.7-0.7c1.4,1.4,2.2,3.1,2.1,5c-0.1,1.9-1.2,3.9-3.9,6l-9.4,6.6h-0.1c-2.9,2.3-4.3,5.2-4.3,8.1
					s1.4,5.4,3.4,7.3c4.1,3.8,11.5,4.7,17.5-0.9l-2.6-2.8c-4.8,4.4-9.6,3.4-12.3,0.9c-1.4-1.3-2.1-2.9-2.1-4.5c0-1.6,0.7-3.3,2.8-5
					l9.4-6.6h0.1c3.3-2.6,5-5.7,5.3-8.8c0.2-3.1-1-6-3.2-8.1C848.8,134.4,845.8,133.2,842.5,133.2z"/>
			</g>
		</g>
	</g>
	<path class="st2" d="M-105.2,198.4l-6.1,0l-15.2,19.4l-15.1-19.4l-6.1,0l18.8,24.1l0,25c0,0.3,0.3,0.6,0.6,0.6l3.6,0
		c0.3,0,0.6-0.3,0.6-0.6l0-25l0.1,0L-105.2,198.4z"/>
	<path id="path16417" class="st2" d="M-91.2,240.2c-0.3,0-0.6,0.3-0.6,0.6c0,0.3,0.3,0.6,0.6,0.6V240.2"/>
	<path id="path16419" class="st2" d="M-76.8,241.4c0.3,0,0.6-0.3,0.6-0.6c0-0.3-0.3-0.6-0.6-0.6V241.4"/>
	<path id="path16421" class="st2" d="M-84.6,249.9c0,0.3,0.3,0.6,0.6,0.6c0.3,0,0.6-0.3,0.6-0.6H-84.6"/>
	<path id="path16423" class="st2" d="M-83.4,232.4c0-0.3-0.3-0.6-0.6-0.6c-0.3,0-0.6,0.3-0.6,0.6H-83.4"/>
	<path id="path16425" class="st2" d="M-91.7,240.5l7.2-8.5h0.8l7.3,8.5v0.6l-7.3,9.2h-0.8l-7.2-9.2V240.5"/>
	<path id="path16427" class="st2" d="M-45.8,197.8c0-0.3-0.3-0.6-0.6-0.6l-3.6,0c-0.3,0-0.6,0.3-0.6,0.6l0,49.7
		c0,0.3,0.3,0.6,0.6,0.6l25.3,0c0.3,0,0.6-0.3,0.6-0.6l0-3.1c0-0.3-0.3-0.6-0.6-0.6l-20.6,0c-0.3,0-0.6-0.3-0.6-0.6l0-45.3"/>
	<path class="st2" d="M84.9,247.6C84.9,247.6,84.9,247.6,84.9,247.6L84.9,247.6l0-49.7c0-0.3-0.3-0.6-0.6-0.6h-3.6
		c-0.3,0-0.6,0.3-0.6,0.6l0,49.7h0c0,0,0,0,0,0v0l0,0c0,0.3,0.3,0.6,0.6,0.6l3.6,0C84.7,248.1,84.9,247.9,84.9,247.6L84.9,247.6
		L84.9,247.6z"/>
	<path class="st2" d="M236.4,247.6l0-49.7c0-0.3-0.3-0.6-0.6-0.6h-3.6c-0.3,0-0.6,0.3-0.6,0.6l0,49.7c0,0.3,0.3,0.6,0.6,0.6l3.6,0
		C236.1,248.1,236.4,247.9,236.4,247.6L236.4,247.6z"/>
	<path class="st2" d="M70.5,197.2l-4.7,0v32h0c0,8.7-7.1,15.8-15.8,15.8c-8.7,0-15.8-7.1-15.8-15.8h0v-32l-4.8,0v32h0
		c0,11.4,9.2,20.6,20.6,20.6c11.3,0,20.5-9.1,20.6-20.5h0L70.5,197.2z"/>
	<g id="g16449" transform="matrix(1.25,0,0,-1.25,-1213.9422,416.17227)">
		<g>
			<defs>
				<rect id="SVGID_5_" x="382.6" y="116" width="1023.3" height="165"/>
			</defs>
			<clipPath id="SVGID_6_">
				<use xlink:href="#SVGID_5_"  style="overflow:visible;"/>
			</clipPath>
			<g id="g16451" class="st4">
				<path id="path16457" class="st2" d="M1055.9,133.4c-3.3,0-7,1.1-10.4,3.9l2.4,3.1c5.5-4.6,10.9-3.6,13.7-0.9
					c1.4,1.4,2.2,3.1,2.1,5c-0.1,1.8-1.2,4-3.8,6h-0.1c0,0,0,0.1,0,0.1l-9.4,6.5v0.1h-0.1c-2.9,2.3-4.3,5.2-4.3,8.1s1.4,5.4,3.4,7.3
					c4.1,3.8,11.5,4.6,17.5-1l-2.6-2.8c-4.8,4.4-9.6,3.5-12.3,1c-1.4-1.3-2.1-2.9-2.1-4.5c0-1.6,0.7-3.4,2.7-5l0.1-0.1l9.4-6.5
					l0.1-0.1c3.3-2.6,5-5.6,5.3-8.7c0.2-3.1-1-6-3.2-8.1C1062.2,134.8,1059.2,133.5,1055.9,133.4z"/>
			</g>
		</g>
	</g>
	<path id="path16459" class="st2" d="M157.6,241.5l16.8-44.3l5,0l-19.7,50.9h-4.4l-19.7-50.9l5,0L157.6,241.5"/>
	<g>
		<path class="st2" d="M278.7,197.2l-37.6,0c-0.3,0-0.5,0.3-0.5,0.6v3c0,0.4,0.3,0.6,0.6,0.6h15.3c0.3,0,0.6,0.4,0.6,0.7l0,45.3
			c0,0.3,0.3,0.6,0.5,0.6h3.6c0.3,0,0.6-0.3,0.6-0.6l0-45.3v0c0-0.3,0.4-0.7,0.5-0.7l16.4,0c0.3,0,0.6-0.3,0.6-0.6v-3
			C279.3,197.5,279,197.2,278.7,197.2z"/>
		<path class="st2" d="M318.2,197.2l-37.6,0c-0.3,0-0.6,0.3-0.6,0.6l0,3c0,0.4,0.2,0.6,0.6,0.6h15.3c0.3,0,0.6,0.4,0.6,0.7l0,45.3
			c0,0.3,0.3,0.6,0.6,0.6h3.6c0.3,0,0.6-0.3,0.6-0.6l0-45.3v0c0-0.3,0.4-0.7,0.5-0.7l16.4,0c0.3,0,0.6-0.3,0.6-0.6v-3
			C318.8,197.5,318.5,197.2,318.2,197.2z"/>
	</g>
	<path id="path16469" class="st2" d="M377,205.2l0,42.3c0,0.3-0.3,0.6-0.6,0.6l-3.6,0c-0.3,0-0.6-0.3-0.6-0.6v-49.6
		c0-0.3,0.3-0.6,0.6-0.7l4.2,0l33.9,43.7l0-43.1c0-0.3,0.2-0.6,0.6-0.6h3.7c0.3,0,0.4,0.3,0.4,0.6l0,49.5c0,0.3-0.3,0.7-0.7,0.7
		l-3.5,0c-0.2,0-1-0.1-1-0.4L377,205.2"/>
	<g id="g16471" transform="matrix(1.25,0,0,-1.25,-1213.9422,416.17227)">
		<g>
			<defs>
				<rect id="SVGID_7_" x="382.6" y="116" width="1023.3" height="165"/>
			</defs>
			<clipPath id="SVGID_8_">
				<use xlink:href="#SVGID_7_"  style="overflow:visible;"/>
			</clipPath>
			<g id="g16473" class="st5">
				<path id="path16479" class="st6" d="M485,194.4h818.6"/>
			</g>
		</g>
	</g>
	<path class="st2" d="M-533,196.3L-533,196.3C-533,196.3-533,196.3-533,196.3c-0.1,0-0.2,0-0.2,0l0,0c-15,0.8-26.2,11.6-26.1,26.2
		c0.1,14.4,11.7,26.1,26.1,26.1c14.4,0,26.1-11.7,26.1-26.1C-507,208.5-518,197.1-533,196.3z M-533.1,243.5c-11.6,0-21-9.4-21-21
		c0-11.3,8.9-20.4,21.2-21.1l0.1,0c12.1,0.9,20.8,9.9,20.8,21.1C-512.1,234.1-521.5,243.5-533.1,243.5z"/>
	<path class="st2" d="M-0.5,196.8L-0.5,196.8C-0.5,196.8-0.5,196.8-0.5,196.8c-0.1,0-0.2,0-0.2,0l0,0c-15,0.8-26.2,11.6-26.1,26.2
		c0.1,14.4,11.7,26.1,26.1,26.1c14.4,0,26.1-11.7,26.1-26.1C25.5,209,14.4,197.6-0.5,196.8z M-0.6,244c-11.6,0-21-9.4-21-21
		c0-11.3,8.9-20.4,21.2-21.1l0.1,0c12.1,0.9,20.8,9.9,20.8,21.1C20.4,234.6,11,244-0.6,244z"/>
	<path class="st2" d="M340.8,196.7L340.8,196.7C340.8,196.7,340.7,196.7,340.8,196.7c-0.1,0-0.2,0-0.2,0l0,0
		c-15,0.8-26.2,11.6-26,26.2c0.1,14.4,11.7,26.1,26.1,26.1s26.1-11.7,26.1-26.1C366.7,208.9,355.7,197.5,340.8,196.7z M340.6,243.9
		c-11.6,0-21-9.4-21-21c0-11.3,8.9-20.4,21.2-21.1l0.1,0c12.1,0.9,20.8,9.9,20.8,21.1C361.7,234.5,352.3,243.9,340.6,243.9z"/>
	<path class="st2" d="M-563.4,197.2l-4.2,0l-17.6,21.6l0,0l-17.6-21.6l-4.2,0c0,0-0.6,0.3-0.6,0.6l0,49.8c0,0.3,0.3,0.5,0.6,0.5h3.6
		c0.6,0,0.6-0.3,0.6-0.6l0-43l16.8,20.9c0.2,0.3,1.7,0.3,1.8,0l16.7-20.9l0,43c0,0.3,0,0.6,0.6,0.6h3.6c0.3,0,0.6-0.2,0.6-0.5
		l0-49.8C-562.8,197.5-563.4,197.2-563.4,197.2z"/>
	<path class="st2" d="M221.9,197.2l-4.7,0l0,32c0,8.7-7.1,15.8-15.8,15.8c-8.7,0-15.8-7.1-15.8-15.8l0-32l-4.8,0v32l0,0
		c0,11.4,9.2,20.6,20.6,20.6c11.4,0,20.6-9.2,20.6-20.6L221.9,197.2z"/>
</g>
</svg>
