<svg enable-background="new 0 0 500 500.031" height="316.227766" viewBox="0 0 420 420.00079" width="316.227766" xmlns="http://www.w3.org/2000/svg" xmlns:xlink="http://www.w3.org/1999/xlink"><linearGradient id="a" gradientUnits="userSpaceOnUse" x1="161.89211" x2="161.89211" y1="189.5811" y2="369.71631"><stop offset="0" stop-color="#259573"/><stop offset="1" stop-color="#007955"/></linearGradient><linearGradient id="b" gradientUnits="userSpaceOnUse" x1="249.1479" x2="249.1479" y1="249.7402" y2="429.87549"><stop offset="0" stop-color="#e5322d"/><stop offset="1" stop-color="#b82624"/></linearGradient><linearGradient id="c" gradientUnits="userSpaceOnUse" x1="245.1196" x2="425.25589" y1="284.27051" y2="284.27051"><stop offset="0" stop-color="#0d6db1"/><stop offset="1" stop-color="#0062a1"/></linearGradient><linearGradient id="d" gradientUnits="userSpaceOnUse" x1="105.7671" x2="285.9043" y1="178.09669" y2="178.09669"><stop offset="0"/><stop offset="1" stop-color="#2a2a29"/></linearGradient><g transform="matrix(.80036977 0 0 .80036977 9.907157 9.895152)"><path d="m251.961 279.647c0 49.743-40.33 90.068-90.067 90.068-49.747 0-90.07-40.325-90.07-90.068s40.323-90.066 90.07-90.066c49.737 0 90.067 40.323 90.067 90.066z" fill="url(#a)"/><path d="m339.217 339.807c0 49.743-40.328 90.068-90.067 90.068-49.748 0-90.071-40.325-90.071-90.068s40.323-90.066 90.071-90.066c49.739-.001 90.067 40.322 90.067 90.066z" fill="url(#b)"/><path d="m425.256 284.27c0 49.743-40.326 90.068-90.064 90.068-49.748 0-90.072-40.325-90.072-90.068s40.324-90.067 90.072-90.067c49.738 0 90.064 40.323 90.064 90.067z" fill="url(#c)"/><path d="m393.639 174.904c0 49.743-40.326 90.069-90.066 90.069-49.746 0-90.07-40.326-90.07-90.069s40.324-90.066 90.07-90.066c49.74-.001 90.066 40.323 90.066 90.066z" fill="#edd709"/><path d="m285.904 178.096c0 49.743-40.328 90.069-90.067 90.069-49.747 0-90.07-40.326-90.07-90.069s40.323-90.067 90.07-90.067c49.74 0 90.067 40.324 90.067 90.067z" fill="url(#d)"/><path d="m250.003.131c-138.011 0-249.887 111.876-249.887 249.886 0 138.006 111.876 249.884 249.888 249.884 138 0 249.881-111.878 249.881-249.884 0-138.01-111.881-249.886-249.882-249.886zm.002 441.577c-105.875 0-191.698-85.825-191.698-191.692 0-105.868 85.823-191.691 191.698-191.691 105.858 0 191.688 85.823 191.688 191.691 0 105.867-85.83 191.692-191.688 191.692z" fill="#99042f"/><g fill="#fff"><path d="m91.05 379.473-16.505 1.361-9.358 18.546-5.871-7.997 6.296-10.889-3.147.255-7.233 5.019-5.274-7.147 26.543-19.396 5.19 7.145-10.038 7.401 14.206-1.956z"/><path d="m97.025 385.557-29.542 16.652 6.381 6.891 4.658-3.445 4.722 5.169-3.381 4.467 6.317 6.892 18.567-28.33zm-9.634 19.97-3.254-3.445 11.549-7.529z"/><path d="m112.347 401.604 10.534 8.839c5.139 4.314 4.695 8.784 1.4 12.671-2.847 3.36-6.043 4.429-9.506 2.306l-.06.072c3.017 3.015 2.286 5.852-.561 9.21l-1.826 2.157c-1.109 1.308-2.546 3.005-2.64 3.772-.06.437-.154.839.101 1.417l-.3.354-7.166-6.017c.487-1.89 2.525-4.292 3.423-5.353l1.438-1.7c2.427-2.86 2.477-4.091.847-5.456l-1.774-1.492-8.567 10.114-6.732-5.65zm-2.315 16.326 1.339 1.127c1.918 1.609 3.843 1.166 5.37-.639 1.738-2.05 1.654-3.631-.373-5.333l-1.304-1.096z"/><path d="m138.654 422.218-24.313 23.642 7.927 5.034 3.625-4.518 5.884 3.79-2.128 5.182 7.866 5.049 10.722-32.129zm-4.217 21.77-4.026-2.504 9.246-10.224z"/><path d="m153.303 467.611-8.104-3.573 11.102-23.162-5.87-2.871 3.063-6.636 19.844 9.571-3.191 6.572-5.87-2.999z"/><path d="m178.634 463.209 9.89 3.253 2.169-6.508-9.954-3.254 1.787-5.296 10.528 3.637 2.297-6.572-18.887-6.445-10.4 31.138 19.461 6.508 2.233-6.827-11.166-3.572z"/><path d="m221.703 465.952.617-5.443 11.272 1.234.68-6.891-19.779-2.425-4.02 32.539 8.869 1.149 1.659-13.399 10.337 1.212.702-6.636z"/><path d="m247.292 474.634 10.409.117.104-6.858-10.471-.099.104-5.587 11.134.288.207-6.96-19.95-.439-.517 32.823 20.518.329.068-7.18-11.724-.038z"/><path d="m263.43 455.169 12.855-1.353c10.232-1.077 11.572 6.639 12.473 15.182.898 8.549 1.191 16.374-9.041 17.449l-12.854 1.354zm11.64 25.576 1.762-.188c3.43-.358 3.713-1.775 2.785-10.595-.93-8.819-1.502-10.145-4.93-9.784l-1.758.185z"/><path d="m304.568 468.395 10.102-2.504-1.623-6.665-10.16 2.538-1.305-5.433 10.85-2.524-1.551-6.786-19.42 4.592 7.76 31.898 19.939-4.842-1.742-6.967-11.355 2.913z"/><path d="m315.24 445.532 12.783-5.077c6.234-2.477 9.959.037 11.816 4.779 1.605 4.102 1.031 7.424-2.482 9.464l.033.088c4.086-1.227 6.236.766 7.844 4.862l1.031 2.632c.625 1.598 1.434 3.668 2.064 4.113.357.262.666.535 1.297.583l.168.438-8.695 3.449c-1.434-1.326-2.582-4.262-3.088-5.556l-.811-2.071c-1.369-3.494-2.428-4.12-4.404-3.334l-2.152.851 4.832 12.343-8.166 3.244zm13.276 9.786 1.623-.644c2.33-.929 2.852-2.83 1.988-5.029-.979-2.505-2.41-3.181-4.871-2.204l-1.58.626z"/><path d="m345.926 432.334 9.389 32.585 8.178-4.619-2.277-5.327 6.119-3.401 3.566 4.316 8.158-4.556-23.283-24.597zm17.211 13.981-4.105 2.371-4.66-12.974z"/><path d="m392.928 440.848-6.955 5.487-15.262-20.658-5.287 3.84-4.426-5.815 17.75-13.048 4.313 5.899-5.403 3.781z"/><path d="m388.045 402.317 21.908 24.418-6.68 5.995-21.734-24.711z"/><path d="m399.572 389.828c6.238-6.613 11.854-5.596 20.777 2.824 8.926 8.421 10.262 13.962 4.021 20.579-6.238 6.612-11.852 5.598-20.777-2.823-8.923-8.42-10.263-13.964-4.021-20.58zm20.59 19.43c1.873-1.987.33-3.832-6.121-9.92s-8.385-7.52-10.26-5.533c-1.871 1.984-.33 3.831 6.119 9.916 6.452 6.088 8.389 7.519 10.262 5.537z"/><path d="m451.533 378.154-5.551 7.784-19.781-7.018 16.272 11.613-5.041 6.891-26.543-19.27 5.869-7.975 19.525 7.018-16.142-11.613 4.849-6.699z"/><path d="m252.641 13.483 15.123.962c7.377.468 9.953 4.315 9.635 9.36-.275 4.356-2.381 7.077-6.836 7.394l-.004.091c4.654.664 5.891 3.367 5.615 7.724l-.176 2.797c-.107 1.697-.248 3.898.18 4.57.238.384.422.764 1.029 1.079l-.029.458-10.289-.654c-.824-1.802-.629-4.921-.541-6.297l.139-2.201c.236-3.715-.537-4.731-2.875-4.879l-2.549-.161-.824 13.116-9.668-.614zm8.789 14.465 1.924.122c2.754.175 4.15-1.301 4.297-3.64.168-2.659-.953-3.882-3.863-4.067l-1.869-.119z"/><path d="m313.555 22.164 13.393 4.677c10.662 3.724 8.586 11.282 5.703 19.386s-6.051 15.281-16.715 11.557l-13.391-4.678zm.283 28.357 1.834.641c3.57 1.248 4.48.104 7.455-8.261 2.975-8.364 2.99-9.82-.576-11.067l-1.838-.642z"/><path d="m231.621 13.827c10.137-.822 14 3.707 14.996 16.042.999 12.339-2.086 17.418-12.229 18.243-10.136.818-13.996-3.706-14.995-16.042-.998-12.337 2.086-17.422 12.228-18.243zm2.3 28.463c3.046-.249 3.166-2.674 2.446-11.592-.721-8.918-1.234-11.294-4.278-11.047-3.042.245-3.164 2.672-2.444 11.588.719 8.919 1.232 11.294 4.276 11.051z"/><path d="m188.771 21.717 8.632-2.09 9.089 21.159.103-.026-2.772-22.686 9.249-2.239 1.451 33.407-10.482 2.537-8.371-20.667-.104.025 2.004 22.207-10.481 2.538-13.984-30.374 9.246-2.239 8.218 21.37.103-.026z"/><path d="m295.568 18.415-9.781-1.957-6.213 32.159 21.61 4.253 1.361-6.805-11.996-2.552z"/></g><path d="m232.762 202.05c-.697-.827-1.725-1.302-2.806-1.302h-23.961c-1.895 0-3.479 1.439-3.659 3.326l-2.982 31.29-5.193-31.538c-.292-1.776-1.827-3.078-3.626-3.078h-21.385c-1.828 0-3.38 1.344-3.638 3.154l-4.433 30.998-3.479-30.889c-.209-1.858-1.781-3.263-3.652-3.263h-23.447c-1.087 0-2.12.482-2.818 1.316-.698.833-.991 1.934-.8 3.005l16.217 90.769c.313 1.753 1.837 3.029 3.618 3.029h25.593c1.842 0 3.398-1.361 3.644-3.187l4.267-31.839 4.249 31.837c.243 1.824 1.802 3.188 3.644 3.188h26.539c1.793 0 3.326-1.294 3.624-3.064l15.303-90.769c.178-1.066-.121-2.158-.819-2.983z" fill="#1d1d1b"/><path d="m307.178 293.542-24.35-48.458 22.033-38.847c.645-1.139.637-2.533-.021-3.663s-1.867-1.825-3.176-1.825h-25.424c-1.385 0-2.652.777-3.279 2.012l-10.688 21.062v-19.398c0-2.03-1.645-3.675-3.674-3.675h-24.041c-.976 0-1.911.388-2.602 1.079-.688.69-1.075 1.627-1.073 2.602l.156 90.77c.003 2.028 1.648 3.669 3.675 3.669h24.011c2.029 0 3.676-1.645 3.676-3.675v-22.826l.246-.394 11.449 24.763c.602 1.3 1.904 2.132 3.336 2.132h26.461c1.273 0 2.457-.66 3.127-1.747.671-1.087.73-2.441.158-3.581z" fill="#1d1d1b"/><path d="m361.219 200.748h-54.674c-2.029 0-3.674 1.645-3.674 3.675v90.77c0 2.03 1.645 3.675 3.674 3.675h24.064c2.031 0 3.676-1.645 3.676-3.675v-33.429h25.092c2.029 0 3.674-1.645 3.674-3.675v-18.491c0-2.029-1.645-3.675-3.674-3.675h-25.092v-7.925h26.934c2.029 0 3.674-1.645 3.674-3.675v-19.9c0-2.03-1.645-3.675-3.674-3.675z" fill="#1d1d1b"/><path d="m200.201 263.686 5.614-59.383h23.736l-15.16 90.636h-26.288l-7.81-58.988-7.844 58.988h-25.351l-16.064-90.636h23.226l6.636 59.383 8.422-59.383h21.183z" fill="#fff"/><path d="m278.326 244.8 24.826 50.139h-26.033l-14.064-30.871-4.338 7.02v23.851h-23.625l-.154-90.636h23.65v34.711l17.355-34.711h25.014z" fill="#fff"/><path d="m358.938 239.426v18.464h-27.973v37.049h-23.402v-90.636h53.166v19.871h-29.764v15.252z" fill="#fff"/></g></svg>