<svg xmlns="http://www.w3.org/2000/svg" width="271.877" height="94.416" viewBox="0 0 271.877 94.416"><path d="M88.378 28.21a10.8 10.8 0 0 0 3.5 2.3 11.085 11.085 0 0 0 4.239.814 11.52 11.52 0 0 0 2.378-.25 12.015 12.015 0 0 0 2.253-.7 12.53 12.53 0 0 0 1.845-.955.771.771 0 0 0 .407-.594.984.984 0 0 0-.188-.751.911.911 0 0 0-.594-.359.982.982 0 0 0-.657.141 11.147 11.147 0 0 1-2.55 1.188 9.393 9.393 0 0 1-2.895.438 9.273 9.273 0 0 1-3.5-.657 8.407 8.407 0 0 1-2.863-1.908 8.822 8.822 0 0 1-1.924-2.988 10.389 10.389 0 0 1-.688-3.865 10.317 10.317 0 0 1 .672-3.785 8.784 8.784 0 0 1 1.893-2.972 8.583 8.583 0 0 1 2.863-1.94 9.089 9.089 0 0 1 3.55-.688 9.537 9.537 0 0 1 2.91.438 9.824 9.824 0 0 1 2.535 1.22 1.449 1.449 0 0 0 .672.141.693.693 0 0 0 .547-.329.986.986 0 0 0 .219-.766.937.937 0 0 0-.438-.642 11.04 11.04 0 0 0-3-1.408 11.858 11.858 0 0 0-3.442-.5 10.907 10.907 0 0 0-4.286.845 10.751 10.751 0 0 0-3.5 2.362 11.189 11.189 0 0 0-2.363 3.551 11.373 11.373 0 0 0-.86 4.474 11.678 11.678 0 0 0 .875 4.6 10.815 10.815 0 0 0 2.394 3.551m19.565 2.793h11.45a1 1 0 0 0 .689-.25.835.835 0 0 0 .282-.657.9.9 0 0 0-.282-.657.937.937 0 0 0-.689-.282h-10.418v-8.51h9.01a1 1 0 0 0 .688-.25.836.836 0 0 0 .282-.657.9.9 0 0 0-.282-.657.932.932 0 0 0-.688-.282h-9.01v-7.851h10.418a1 1 0 0 0 .689-.25.836.836 0 0 0 .282-.658.883.883 0 0 0-.282-.672.967.967 0 0 0-.689-.266h-11.45a.887.887 0 0 0-.673.282.925.925 0 0 0-.266.657v20.022a.925.925 0 0 0 .266.657.887.887 0 0 0 .673.282m17.706-.001a.848.848 0 0 0 .626-.25.812.812 0 0 0 .25-.594V12.641l13.422 18.054a.742.742 0 0 0 .329.234 1.159 1.159 0 0 0 .422.078.984.984 0 0 0 .673-.266.937.937 0 0 0 .3-.735V9.985a.882.882 0 0 0-.234-.626.838.838 0 0 0-.642-.25.855.855 0 0 0-.875.876v17.631L126.436 9.453a.679.679 0 0 0-.345-.266 1.225 1.225 0 0 0-.407-.078.884.884 0 0 0-.907.939v20.117a.83.83 0 0 0 .875.844m20.964-20.114h6.445v19.176a.9.9 0 0 0 .282.657.972.972 0 0 0 .719.282.936.936 0 0 0 .688-.282.9.9 0 0 0 .282-.657V10.895h6.445a1.035 1.035 0 0 0 .688-.235.789.789 0 0 0 .282-.64.84.84 0 0 0-.282-.658 1 1 0 0 0-.688-.25h-14.861a.958.958 0 0 0-.657.25.839.839 0 0 0-.282.658.8.8 0 0 0 .282.625.955.955 0 0 0 .657.25m20.898 20.114a.838.838 0 0 0 .656-.282.958.958 0 0 0 .25-.657v-8.384h6.946a6.751 6.751 0 0 1 1.392.156 3.548 3.548 0 0 1 1.345.6 3.285 3.285 0 0 1 1 1.2 4.382 4.382 0 0 1 .391 1.987 10.864 10.864 0 0 0 .3 2.878 4.37 4.37 0 0 0 .735 1.565 3.077 3.077 0 0 0 .908.782.922.922 0 0 0 .469.126 1.243 1.243 0 0 0 .5-.11.742.742 0 0 0 .375-.36.77.77 0 0 0 .078-.657.932.932 0 0 0-.422-.532 1.7 1.7 0 0 1-.563-.594 3.234 3.234 0 0 1-.329-1.126 18.155 18.155 0 0 1-.141-2.1 5.667 5.667 0 0 0-.641-2.644 4.754 4.754 0 0 0-1.611-1.752 5.045 5.045 0 0 0-.907-.456 6.289 6.289 0 0 0 1.877-1.14 5.469 5.469 0 0 0 1.408-1.94 6.21 6.21 0 0 0 .5-2.519 5.9 5.9 0 0 0-.8-3.066 5.659 5.659 0 0 0-2.205-2.112 6.568 6.568 0 0 0-3.192-.767h-8.447a.887.887 0 0 0-.673.282.925.925 0 0 0-.266.657v20.027a.878.878 0 0 0 .3.657 1.071 1.071 0 0 0 .767.282m11.309-18.881a3.954 3.954 0 0 1 1.2 2.956 5.078 5.078 0 0 1-.594 2.488 4.554 4.554 0 0 1-1.517 1.674 4.322 4.322 0 0 1-1.987.688h-7.509v-8.98h7.259a4.314 4.314 0 0 1 3.144 1.173m9.532 18.881h11.45a1 1 0 0 0 .689-.25.835.835 0 0 0 .282-.657.9.9 0 0 0-.282-.657.937.937 0 0 0-.689-.282h-10.418v-8.51h9.01a1 1 0 0 0 .688-.25.836.836 0 0 0 .282-.657.9.9 0 0 0-.282-.657.932.932 0 0 0-.688-.282h-9.01v-7.851h10.418a1 1 0 0 0 .689-.25.837.837 0 0 0 .282-.658.883.883 0 0 0-.282-.672.967.967 0 0 0-.689-.266h-11.45a.887.887 0 0 0-.673.282.925.925 0 0 0-.266.657v20.022a.925.925 0 0 0 .266.657.887.887 0 0 0 .673.282m-88.289 26.851a.939.939 0 0 0 .689.282.927.927 0 0 0 .7-.282 1.094 1.094 0 0 0 .3-.688V37.212a.968.968 0 0 0-.266-.688.927.927 0 0 0-.7-.282.991.991 0 0 0-.7.282.913.913 0 0 0-.3.688v8.822H87.078v-8.822a.913.913 0 0 0-.3-.688.956.956 0 0 0-.673-.282.976.976 0 0 0-.719.282.936.936 0 0 0-.282.688v19.961a1 1 0 0 0 .25.688.914.914 0 0 0 .719.282.955.955 0 0 0 .673-.282 1.025 1.025 0 0 0 .328-.688V47.88h12.7v9.292a.937.937 0 0 0 .282.688m24.158-18.755a9.767 9.767 0 0 0-3.331-2.346 11.137 11.137 0 0 0-8.432 0 9.81 9.81 0 0 0-3.316 2.346 10.906 10.906 0 0 0-2.19 3.567 13.462 13.462 0 0 0 0 9.042 10.892 10.892 0 0 0 2.19 3.567 9.791 9.791 0 0 0 3.316 2.346 11.137 11.137 0 0 0 8.432 0 9.749 9.749 0 0 0 3.331-2.346 10.7 10.7 0 0 0 2.175-3.567 13.726 13.726 0 0 0 0-9.042 10.717 10.717 0 0 0-2.175-3.567m-.156 12.984a8.345 8.345 0 0 1-2.988 3.3 8.091 8.091 0 0 1-4.4 1.188 8.038 8.038 0 0 1-7.4-4.49 11.644 11.644 0 0 1 0-9.792 8.46 8.46 0 0 1 11.795-3.3 8.345 8.345 0 0 1 2.988 3.3 11.5 11.5 0 0 1 0 9.792m9.453 5.633a9.9 9.9 0 0 0 4.13.735 8.868 8.868 0 0 0 3.708-.781 6.267 6.267 0 0 0 2.487-2.035 4.863 4.863 0 0 0 .907-2.878 6.137 6.137 0 0 0-.547-2.753 5.1 5.1 0 0 0-1.5-1.815 9.23 9.23 0 0 0-2.19-1.2 26.821 26.821 0 0 0-2.581-.86q-1.378-.469-2.6-1.016a5.83 5.83 0 0 1-1.97-1.378 3.066 3.066 0 0 1-.751-2.142 3.212 3.212 0 0 1 .672-2.066 4.26 4.26 0 0 1 1.847-1.3 7.287 7.287 0 0 1 2.643-.454 7.44 7.44 0 0 1 2.05.281 6.9 6.9 0 0 1 1.8.8 5.515 5.515 0 0 1 1.346 1.173.721.721 0 0 0 .531.219.98.98 0 0 0 .689-.3.878.878 0 0 0 .312-.641 1.415 1.415 0 0 0-.469-.907 6.155 6.155 0 0 0-2.706-1.846 10.231 10.231 0 0 0-3.552-.626 8.922 8.922 0 0 0-3.738.735 5.834 5.834 0 0 0-2.488 2.033 5.165 5.165 0 0 0-.875 2.956 5.611 5.611 0 0 0 .5 2.472 4.9 4.9 0 0 0 1.392 1.736 8.6 8.6 0 0 0 2.065 1.189q1.174.486 2.456.892a18.935 18.935 0 0 1 2.847 1.032 6.071 6.071 0 0 1 2.05 1.471 3.512 3.512 0 0 1 .8 2.315 3.2 3.2 0 0 1-.688 2.034 4.365 4.365 0 0 1-1.861 1.345 7.161 7.161 0 0 1-2.676.47 8.117 8.117 0 0 1-3.332-.688 8.413 8.413 0 0 1-2.769-2 .962.962 0 0 0-.689-.313.909.909 0 0 0-.672.313.98.98 0 0 0-.3.688.847.847 0 0 0 .11.438 1.672 1.672 0 0 0 .266.344 11.253 11.253 0 0 0 3.348 2.331m24.026-8.843a5.7 5.7 0 0 0 3.1-.844 6.033 6.033 0 0 0 2.127-2.3 6.728 6.728 0 0 0 .782-3.238 6.587 6.587 0 0 0-.782-3.253 5.765 5.765 0 0 0-2.127-2.206 5.956 5.956 0 0 0-3.1-.8h-7.414a.887.887 0 0 0-.673.282.922.922 0 0 0-.266.657v20.026a.954.954 0 0 0 .25.657.873.873 0 0 0 .688.282.963.963 0 0 0 .939-.939V48.88Zm2.127-10.23a3.93 3.93 0 0 1 1.429 1.55 4.9 4.9 0 0 1 .516 2.3 5.141 5.141 0 0 1-.516 2.3 4.174 4.174 0 0 1-1.424 1.659 3.723 3.723 0 0 1-2.127.61h-6.476v-8.981h6.476a3.952 3.952 0 0 1 2.127.563m8.443-2.127a.936.936 0 0 0-.282.688v19.961a1 1 0 0 0 .25.688.913.913 0 0 0 .719.282.956.956 0 0 0 .673-.282 1.025 1.025 0 0 0 .328-.688V37.212a.913.913 0 0 0-.3-.688.955.955 0 0 0-.673-.282.976.976 0 0 0-.719.282m13.054 20.68a.9.9 0 0 0 .282.657.973.973 0 0 0 .719.282.938.938 0 0 0 .688-.282.9.9 0 0 0 .282-.657V38.025h6.445a1.035 1.035 0 0 0 .688-.235.789.789 0 0 0 .282-.64.84.84 0 0 0-.282-.658 1 1 0 0 0-.688-.25h-14.864a.958.958 0 0 0-.657.25.837.837 0 0 0-.282.658.8.8 0 0 0 .282.625.954.954 0 0 0 .657.25h6.448Zm9.823-.22a.792.792 0 0 0-.031.375.816.816 0 0 0 .219.579.9.9 0 0 0 .688.234.84.84 0 0 0 .5-.156 1.032 1.032 0 0 0 .344-.469l2.308-5.726h10.172l2.345 5.726a1.112 1.112 0 0 0 .36.453.9.9 0 0 0 .548.172.992.992 0 0 0 .657-.234.828.828 0 0 0 .282-.672 1.2 1.2 0 0 0-.062-.376l-8.23-20.116a1.106 1.106 0 0 0-.36-.453.95.95 0 0 0-.578-.173 1.044 1.044 0 0 0-.547.141.893.893 0 0 0-.36.485Zm9.076-17.688 4.373 10.68h-8.677Zm25.209 17.001h-10.105V37.18a.88.88 0 0 0-.3-.658.955.955 0 0 0-.673-.281.975.975 0 0 0-.719.281.9.9 0 0 0-.282.658v20.024a.923.923 0 0 0 .266.657.882.882 0 0 0 .672.282h11.138a.964.964 0 0 0 .688-.266.885.885 0 0 0 .282-.673.851.851 0 0 0-.282-.642.967.967 0 0 0-.688-.266m5.572-20.054a.975.975 0 0 0-.719.282.935.935 0 0 0-.282.688v19.961a1 1 0 0 0 .25.688.913.913 0 0 0 .719.282.956.956 0 0 0 .673-.282 1.025 1.025 0 0 0 .328-.688V37.212a.912.912 0 0 0-.3-.688.955.955 0 0 0-.673-.282m19.214 1.846a1 1 0 0 0 .689-.25.838.838 0 0 0 .282-.657.888.888 0 0 0-.282-.673.967.967 0 0 0-.689-.266h-11.45a.884.884 0 0 0-.673.282.922.922 0 0 0-.266.657v20.022a.925.925 0 0 0 .266.658.886.886 0 0 0 .673.281h11.45a1 1 0 0 0 .689-.25.837.837 0 0 0 .282-.657.9.9 0 0 0-.282-.657.94.94 0 0 0-.689-.282h-10.419v-8.51h9.011a1 1 0 0 0 .688-.25.836.836 0 0 0 .282-.658.9.9 0 0 0-.282-.657.935.935 0 0 0-.688-.282h-9.011v-7.851Zm21.79 18.892a.937.937 0 0 0-.422-.532 1.7 1.7 0 0 1-.563-.594 3.234 3.234 0 0 1-.329-1.126 18.3 18.3 0 0 1-.141-2.1 5.651 5.651 0 0 0-.641-2.644 4.759 4.759 0 0 0-1.611-1.752 5.053 5.053 0 0 0-.908-.456 6.291 6.291 0 0 0 1.878-1.14 5.47 5.47 0 0 0 1.408-1.94 6.211 6.211 0 0 0 .5-2.519 5.9 5.9 0 0 0-.8-3.066 5.66 5.66 0 0 0-2.205-2.112 6.568 6.568 0 0 0-3.192-.767h-8.446a.886.886 0 0 0-.673.282.922.922 0 0 0-.266.657v20.033a.875.875 0 0 0 .3.657 1.07 1.07 0 0 0 .767.282.838.838 0 0 0 .656-.282.958.958 0 0 0 .25-.657v-8.385h6.946a6.742 6.742 0 0 1 1.392.156 3.548 3.548 0 0 1 1.345.6 3.273 3.273 0 0 1 1 1.2 4.374 4.374 0 0 1 .391 1.987 10.889 10.889 0 0 0 .3 2.878 4.352 4.352 0 0 0 .735 1.565 3.068 3.068 0 0 0 .907.782.924.924 0 0 0 .469.126 1.243 1.243 0 0 0 .5-.11.739.739 0 0 0 .375-.36.77.77 0 0 0 .078-.657m-6.93-9.918h-7.509v-8.98h7.259a4.314 4.314 0 0 1 3.144 1.173 3.955 3.955 0 0 1 1.2 2.957 5.078 5.078 0 0 1-.594 2.488 4.548 4.548 0 0 1-1.517 1.674 4.322 4.322 0 0 1-1.987.688M96.178 64.313a1.608 1.608 0 0 0-.594-.782 1.554 1.554 0 0 0-.907-.282 1.459 1.459 0 0 0-.923.25 1.57 1.57 0 0 0-.61.813l-7.947 19.21a1.613 1.613 0 0 0-.093.5 1.436 1.436 0 0 0 .343.986 1.346 1.346 0 0 0 1.064.391 1.374 1.374 0 0 0 .844-.282 1.7 1.7 0 0 0 .564-.782l1.855-4.443h9.595l1.878 4.443a1.771 1.771 0 0 0 .579.767 1.4 1.4 0 0 0 .861.3 1.5 1.5 0 0 0 1.471-1.533 1.681 1.681 0 0 0-.125-.626ZM91.027 76.89l3.514-8.417 3.558 8.417Zm29.245-13.578a1.485 1.485 0 0 0-1.439 1l-6.318 15.911-6.7-15.88a1.545 1.545 0 0 0-1.471-1.033 1.781 1.781 0 0 0-1.048.407 1.357 1.357 0 0 0-.547 1.158 1.855 1.855 0 0 0 .031.329.983.983 0 0 0 .125.329l7.916 18.741a1.664 1.664 0 0 0 .61.719 1.743 1.743 0 0 0 .83.281 1.665 1.665 0 0 0 .86-.25 1.727 1.727 0 0 0 .673-.782l7.915-18.709a1.807 1.807 0 0 0 .157-.688 1.436 1.436 0 0 0-.47-1.1 1.593 1.593 0 0 0-1.126-.438m6.823.068a1.687 1.687 0 0 0-1.22.454 1.523 1.523 0 0 0-.469 1.142V83.68a1.53 1.53 0 0 0 1.627 1.6 1.656 1.656 0 0 0 1.658-1.6V64.97a1.5 1.5 0 0 0-.485-1.142 1.583 1.583 0 0 0-1.111-.454m22.745 10.325h-5.382a1.579 1.579 0 0 0-1.142.438 1.625 1.625 0 0 0 0 2.252 1.576 1.576 0 0 0 1.142.438h3.6v4.778a8.745 8.745 0 0 1-1.815.587 10.84 10.84 0 0 1-2.315.266 7.8 7.8 0 0 1-6.93-4.02 8.231 8.231 0 0 1-1.048-4.114 8.121 8.121 0 0 1 1.048-4.114 8.011 8.011 0 0 1 2.863-2.925 7.716 7.716 0 0 1 4.067-1.1 8.63 8.63 0 0 1 2.1.25 10.489 10.489 0 0 1 1.876.657 3.734 3.734 0 0 0 .438.157 1.606 1.606 0 0 0 .438.062 1.384 1.384 0 0 0 1.064-.485 1.612 1.612 0 0 0 .438-1.111 1.572 1.572 0 0 0-.187-.735 1.385 1.385 0 0 0-.6-.579 10.439 10.439 0 0 0-2.612-1 12.561 12.561 0 0 0-2.957-.344 11.253 11.253 0 0 0-8.072 3.269 11.267 11.267 0 0 0-2.44 3.582 11.553 11.553 0 0 0 0 8.823 11.346 11.346 0 0 0 6.055 5.991 11.4 11.4 0 0 0 4.458.86 11.851 11.851 0 0 0 3.55-.531 14.131 14.131 0 0 0 3.145-1.408 2.422 2.422 0 0 0 .563-.563 1.4 1.4 0 0 0 .25-.845v-6.946a1.552 1.552 0 0 0-1.6-1.6m22.124-10.314a1.357 1.357 0 0 0-1.047.422 1.48 1.48 0 0 0-.391 1.048v14.813l-12.077-15.72a1.123 1.123 0 0 0-.579-.422 2.161 2.161 0 0 0-.735-.141 1.551 1.551 0 0 0-1.6 1.6v18.866a1.442 1.442 0 0 0 .391 1.017 1.358 1.358 0 0 0 1.047.422 1.372 1.372 0 0 0 1.033-.422 1.414 1.414 0 0 0 .406-1.017V69.093l12.14 15.714a1.238 1.238 0 0 0 .532.343 1.99 1.99 0 0 0 .688.126 1.551 1.551 0 0 0 1.6-1.6v-18.83a1.483 1.483 0 0 0-.391-1.048 1.323 1.323 0 0 0-1.017-.422m23.48 2.94a10.168 10.168 0 0 0-3.364-2.394 10.382 10.382 0 0 0-4.254-.86 10.11 10.11 0 0 0-7.587 3.254 10.93 10.93 0 0 0-2.205 3.582 12.916 12.916 0 0 0 0 8.854 10.913 10.913 0 0 0 2.205 3.582 10.112 10.112 0 0 0 7.587 3.253 10.371 10.371 0 0 0 4.254-.86 10.147 10.147 0 0 0 3.364-2.393 10.925 10.925 0 0 0 2.206-3.582 12.926 12.926 0 0 0 0-8.854 10.943 10.943 0 0 0-2.206-3.582m-1.329 12.17a7.454 7.454 0 0 1-2.55 2.909 7.077 7.077 0 0 1-7.462 0 7.168 7.168 0 0 1-2.534-2.909 10.031 10.031 0 0 1 0-8.338 7.192 7.192 0 0 1 2.534-2.893 7.073 7.073 0 0 1 7.462 0 7.454 7.454 0 0 1 2.55 2.909 9.7 9.7 0 0 1 0 8.322m24.59-15.111a1.357 1.357 0 0 0-1.047.422 1.48 1.48 0 0 0-.391 1.048v14.813l-12.078-15.72a1.123 1.123 0 0 0-.579-.422 2.161 2.161 0 0 0-.735-.141 1.551 1.551 0 0 0-1.6 1.6v18.866a1.443 1.443 0 0 0 .391 1.017 1.358 1.358 0 0 0 1.048.422 1.372 1.372 0 0 0 1.033-.422 1.414 1.414 0 0 0 .406-1.017V69.093l12.14 15.714a1.238 1.238 0 0 0 .532.343 1.99 1.99 0 0 0 .688.126 1.551 1.551 0 0 0 1.6-1.6v-18.83a1.483 1.483 0 0 0-.391-1.048 1.323 1.323 0 0 0-1.017-.422" fill="#153d8a"/><path d="M33.807 0C16.771 0 2.645 11.837 0 27.34 2.828 16.855 12.844 9.082 24.73 9.082a27.418 27.418 0 0 1 10.79 2.243 24.01 24.01 0 0 1 8.286-1.478 24.285 24.285 0 0 1 24.258 24.258V32.6c0-18-15.338-32.6-34.257-32.6" fill="#da5f06"/><path d="M43.806 9.847a24.017 24.017 0 0 0-8.287 1.475c9 3.851 15.528 12.276 15.528 22.055v9.987H34.031v-8.823a8.473 8.473 0 0 0-16.946 0v34.568h.011a8.467 8.467 0 0 0 16.928 0h.011v-8.726h17.012v25.524a8.508 8.508 0 1 0 17.016 0V34.102A24.285 24.285 0 0 0 43.806 9.847" fill="#153d8a"/></svg>